# xmcd CD database file
#
# Track frame offsets:
#	150
#	14342
#	38240
#	54610
#	74512
#	87657
#	99995
#	115882
#	134680
#	163950
#	181180
#	211600
#
# Disc length: 3139 seconds
#
# Revision: 4
# Processed by: cddbd v1.4PL0 Copyright (c) Steve Scherf et al.
# Submitted via: CDex 1.40Release
#
DISCID=aa0c410c
DTITLE=Charlie Robison - Life Of The Party
DYEAR=1996
DGENRE=Country
TTITLE0=Poor Man's Son
TTITLE1=Sunset Boulevard
TTITLE2=Barlight
TTITLE3=My Hometown
TTITLE4=Don't Call Me A Fool
TTITLE5=Arms Of Love
TTITLE6=I Don't Feel That Way
TTITLE7=You're Not The Best
TTITLE8=Loving County
TTITLE9=Waiting For The Mail
TTITLE10=Indianola
TTITLE11=Molly's Blues
EXTD=YEAR: 1996 ID3G: 2
EXTT0=
EXTT1=
EXTT2=
EXTT3=
EXTT4=
EXTT5=
EXTT6=
EXTT7=
EXTT8=
EXTT9=
EXTT10=
EXTT11=
PLAYORDER=
